G75*
%MOIN*%
%OFA0B0*%
%FSLAX25Y25*%
%IPPOS*%
%LPD*%
%AMOC8*
5,1,8,0,0,1.08239X$1,22.5*
%
%ADD10OC8,0.06000*%
%ADD11C,0.02000*%
%ADD12C,0.03150*%
%ADD13C,0.02978*%
D10*
X0027000Y0037000D03*
X0037000Y0037000D03*
X0047000Y0037000D03*
X0057000Y0037000D03*
X0067000Y0037000D03*
X0077000Y0037000D03*
X0077000Y0047000D03*
X0067000Y0047000D03*
X0057000Y0047000D03*
X0047000Y0047000D03*
X0037000Y0047000D03*
X0027000Y0047000D03*
X0052000Y0112000D03*
X0062000Y0112000D03*
X0072000Y0112000D03*
X0082000Y0112000D03*
X0092000Y0112000D03*
X0102000Y0112000D03*
X0112000Y0112000D03*
X0122000Y0112000D03*
X0132000Y0112000D03*
X0142000Y0112000D03*
X0142000Y0122000D03*
X0132000Y0122000D03*
X0122000Y0122000D03*
X0112000Y0122000D03*
X0102000Y0122000D03*
X0092000Y0122000D03*
X0082000Y0122000D03*
X0072000Y0122000D03*
X0062000Y0122000D03*
X0052000Y0122000D03*
X0117500Y0047000D03*
X0127500Y0047000D03*
X0137500Y0047000D03*
X0147500Y0047000D03*
X0157500Y0047000D03*
X0167500Y0047000D03*
X0167500Y0037000D03*
X0157500Y0037000D03*
X0147500Y0037000D03*
X0137500Y0037000D03*
X0127500Y0037000D03*
X0117500Y0037000D03*
D11*
X0158000Y0010500D02*
X0007500Y0010500D01*
X0007500Y0040000D01*
X0024000Y0064000D01*
X0047500Y0064000D01*
X0047000Y0047000D01*
X0051130Y0051355D02*
X0051477Y0063148D01*
X0051500Y0063204D01*
X0051500Y0063941D01*
X0051522Y0064678D01*
X0051500Y0064735D01*
X0051500Y0064796D01*
X0051218Y0065476D01*
X0050956Y0066165D01*
X0050914Y0066209D01*
X0050891Y0066266D01*
X0050370Y0066787D01*
X0049865Y0067323D01*
X0049809Y0067348D01*
X0049766Y0067391D01*
X0049085Y0067673D01*
X0048413Y0067975D01*
X0048352Y0067977D01*
X0048296Y0068000D01*
X0047559Y0068000D01*
X0046822Y0068022D01*
X0046765Y0068000D01*
X0024421Y0068000D01*
X0024054Y0068078D01*
X0023633Y0068000D01*
X0023204Y0068000D01*
X0022858Y0067857D01*
X0022489Y0067788D01*
X0022130Y0067555D01*
X0021734Y0067391D01*
X0021469Y0067126D01*
X0021155Y0066922D01*
X0020912Y0066569D01*
X0020609Y0066266D01*
X0020465Y0065919D01*
X0007000Y0046333D01*
X0007000Y0165701D01*
X0196921Y0165701D01*
X0196921Y0007000D01*
X0160098Y0007000D01*
X0189689Y0017500D01*
X0189796Y0017500D01*
X0190435Y0017765D01*
X0191087Y0017996D01*
X0191167Y0018068D01*
X0191266Y0018109D01*
X0191755Y0018598D01*
X0192269Y0019062D01*
X0192315Y0019159D01*
X0192391Y0019234D01*
X0192656Y0019874D01*
X0192954Y0020499D01*
X0192959Y0020605D01*
X0193000Y0020704D01*
X0193000Y0021396D01*
X0193036Y0022088D01*
X0193000Y0022189D01*
X0193000Y0071980D01*
X0193070Y0072246D01*
X0193000Y0072768D01*
X0193000Y0073296D01*
X0192895Y0073550D01*
X0192858Y0073823D01*
X0192593Y0074279D01*
X0192391Y0074766D01*
X0192196Y0074960D01*
X0192058Y0075198D01*
X0191639Y0075518D01*
X0191266Y0075891D01*
X0191012Y0075996D01*
X0190793Y0076163D01*
X0190283Y0076298D01*
X0189796Y0076500D01*
X0189520Y0076500D01*
X0139283Y0089798D01*
X0138796Y0090000D01*
X0138520Y0090000D01*
X0138254Y0090070D01*
X0137732Y0090000D01*
X0136030Y0090000D01*
X0136295Y0090638D01*
X0150266Y0104609D01*
X0151391Y0105734D01*
X0152000Y0107204D01*
X0152000Y0122864D01*
X0176500Y0100249D01*
X0176500Y0092704D01*
X0177109Y0091234D01*
X0177547Y0090796D01*
X0178122Y0089409D01*
X0179409Y0088122D01*
X0181090Y0087425D01*
X0182910Y0087425D01*
X0184591Y0088122D01*
X0185878Y0089409D01*
X0186575Y0091090D01*
X0186575Y0092910D01*
X0185878Y0094591D01*
X0184591Y0095878D01*
X0184500Y0095916D01*
X0184500Y0101287D01*
X0184529Y0101365D01*
X0184500Y0102080D01*
X0184500Y0102796D01*
X0184468Y0102872D01*
X0184465Y0102955D01*
X0184165Y0103605D01*
X0183891Y0104266D01*
X0183832Y0104324D01*
X0183798Y0104400D01*
X0183272Y0104885D01*
X0182766Y0105391D01*
X0182689Y0105423D01*
X0151286Y0134410D01*
X0151279Y0134425D01*
X0150702Y0134950D01*
X0150128Y0135479D01*
X0150114Y0135484D01*
X0139761Y0144896D01*
X0139266Y0145391D01*
X0139175Y0145429D01*
X0139102Y0145495D01*
X0138443Y0145732D01*
X0137796Y0146000D01*
X0137697Y0146000D01*
X0137604Y0146033D01*
X0136905Y0146000D01*
X0136059Y0146000D01*
X0116339Y0146580D01*
X0116339Y0146580D01*
X0102354Y0146991D01*
X0101802Y0147074D01*
X0101566Y0147014D01*
X0101322Y0147022D01*
X0100800Y0146823D01*
X0100258Y0146688D01*
X0100062Y0146543D01*
X0099835Y0146456D01*
X0099428Y0146073D01*
X0098979Y0145740D01*
X0098854Y0145531D01*
X0098677Y0145365D01*
X0098448Y0144855D01*
X0094555Y0138367D01*
X0097764Y0148635D01*
X0098000Y0149204D01*
X0098000Y0149390D01*
X0098055Y0149566D01*
X0098000Y0150180D01*
X0098000Y0150796D01*
X0097929Y0150967D01*
X0097912Y0151151D01*
X0097627Y0151697D01*
X0097391Y0152266D01*
X0097260Y0152397D01*
X0097174Y0152561D01*
X0096701Y0152955D01*
X0092266Y0157391D01*
X0090796Y0158000D01*
X0074418Y0158000D01*
X0074048Y0158078D01*
X0073630Y0158000D01*
X0073204Y0158000D01*
X0072855Y0157855D01*
X0072484Y0157786D01*
X0072127Y0157554D01*
X0071734Y0157391D01*
X0071467Y0157124D01*
X0029127Y0129554D01*
X0028734Y0129391D01*
X0028467Y0129124D01*
X0028151Y0128918D01*
X0027910Y0128567D01*
X0027609Y0128266D01*
X0027464Y0127917D01*
X0027251Y0127605D01*
X0027163Y0127189D01*
X0027000Y0126796D01*
X0027000Y0126418D01*
X0026922Y0126048D01*
X0027000Y0125630D01*
X0027000Y0108676D01*
X0026961Y0108563D01*
X0027000Y0107884D01*
X0027000Y0107204D01*
X0027046Y0107094D01*
X0027053Y0106974D01*
X0027349Y0106362D01*
X0027609Y0105734D01*
X0027694Y0105649D01*
X0027746Y0105542D01*
X0028254Y0105090D01*
X0028734Y0104609D01*
X0028845Y0104563D01*
X0028934Y0104483D01*
X0029576Y0104260D01*
X0030204Y0104000D01*
X0030324Y0104000D01*
X0049668Y0097272D01*
X0049511Y0096893D01*
X0049511Y0095107D01*
X0050194Y0093457D01*
X0051457Y0092194D01*
X0053107Y0091511D01*
X0054893Y0091511D01*
X0056543Y0092194D01*
X0057806Y0093457D01*
X0058489Y0095107D01*
X0058489Y0096893D01*
X0058000Y0098073D01*
X0058000Y0099324D01*
X0058039Y0099437D01*
X0058000Y0100116D01*
X0058000Y0100796D01*
X0057954Y0100906D01*
X0057947Y0101026D01*
X0057651Y0101638D01*
X0057391Y0102266D01*
X0057306Y0102351D01*
X0057254Y0102458D01*
X0056746Y0102910D01*
X0056266Y0103391D01*
X0056155Y0103437D01*
X0056066Y0103517D01*
X0055424Y0103740D01*
X0054796Y0104000D01*
X0054676Y0104000D01*
X0035000Y0110844D01*
X0035000Y0123831D01*
X0072767Y0148424D01*
X0056638Y0132295D01*
X0055457Y0131806D01*
X0054194Y0130543D01*
X0053511Y0128893D01*
X0053511Y0127107D01*
X0053555Y0127000D01*
X0052000Y0127000D01*
X0052000Y0122000D01*
X0042000Y0112000D01*
X0046000Y0111918D02*
X0035000Y0111918D01*
X0035000Y0113917D02*
X0046000Y0113917D01*
X0046000Y0114485D02*
X0046000Y0109515D01*
X0049515Y0106000D01*
X0054485Y0106000D01*
X0057000Y0108515D01*
X0059515Y0106000D01*
X0064485Y0106000D01*
X0067000Y0108515D01*
X0069515Y0106000D01*
X0074485Y0106000D01*
X0077000Y0108515D01*
X0079515Y0106000D01*
X0082343Y0106000D01*
X0060638Y0084295D01*
X0059457Y0083806D01*
X0058194Y0082543D01*
X0057511Y0080893D01*
X0057511Y0079107D01*
X0058194Y0077457D01*
X0059457Y0076194D01*
X0060221Y0075878D01*
X0054609Y0070266D01*
X0054000Y0068796D01*
X0054000Y0052485D01*
X0052000Y0050485D01*
X0051130Y0051355D01*
X0051148Y0051963D02*
X0053478Y0051963D01*
X0054000Y0053961D02*
X0051206Y0053961D01*
X0051265Y0055960D02*
X0054000Y0055960D01*
X0054000Y0057958D02*
X0051324Y0057958D01*
X0051383Y0059957D02*
X0054000Y0059957D01*
X0054000Y0061955D02*
X0051442Y0061955D01*
X0051500Y0063954D02*
X0054000Y0063954D01*
X0054000Y0065952D02*
X0051037Y0065952D01*
X0048466Y0067951D02*
X0054000Y0067951D01*
X0054478Y0069949D02*
X0007000Y0069949D01*
X0007000Y0067951D02*
X0023086Y0067951D01*
X0020479Y0065952D02*
X0007000Y0065952D01*
X0007000Y0063954D02*
X0019114Y0063954D01*
X0017740Y0061955D02*
X0007000Y0061955D01*
X0007000Y0059957D02*
X0016366Y0059957D01*
X0014992Y0057958D02*
X0007000Y0057958D01*
X0007000Y0055960D02*
X0013618Y0055960D01*
X0012244Y0053961D02*
X0007000Y0053961D01*
X0007000Y0051963D02*
X0010870Y0051963D01*
X0009496Y0049964D02*
X0007000Y0049964D01*
X0007000Y0047966D02*
X0008122Y0047966D01*
X0013709Y0041970D02*
X0023000Y0041970D01*
X0023000Y0041485D02*
X0023000Y0042515D01*
X0021000Y0044515D01*
X0021000Y0049485D01*
X0024515Y0053000D01*
X0029485Y0053000D01*
X0032707Y0049778D01*
X0034929Y0052000D01*
X0037000Y0052000D01*
X0037000Y0047000D01*
X0037000Y0057000D01*
X0037000Y0052000D02*
X0037000Y0047000D01*
X0037000Y0037000D01*
X0037000Y0034500D01*
X0042000Y0029500D01*
X0043240Y0029979D02*
X0037991Y0029979D01*
X0038378Y0029591D02*
X0037091Y0030878D01*
X0035704Y0031453D01*
X0035157Y0032000D01*
X0037000Y0032000D01*
X0039071Y0032000D01*
X0041293Y0034222D01*
X0043158Y0032357D01*
X0043364Y0026387D01*
X0039075Y0026267D01*
X0039075Y0027910D01*
X0038378Y0029591D01*
X0039046Y0027981D02*
X0043309Y0027981D01*
X0043171Y0031978D02*
X0035179Y0031978D01*
X0037000Y0032000D02*
X0037000Y0037000D01*
X0037000Y0037000D01*
X0037000Y0042000D01*
X0039071Y0042000D01*
X0041293Y0039778D01*
X0043515Y0042000D01*
X0041293Y0044222D01*
X0039071Y0042000D01*
X0037000Y0042000D01*
X0037000Y0047000D01*
X0037000Y0047000D01*
X0037000Y0047000D01*
X0037000Y0042000D01*
X0034929Y0042000D01*
X0032707Y0039778D01*
X0031000Y0041485D01*
X0031000Y0042515D01*
X0032707Y0044222D01*
X0034929Y0042000D01*
X0037000Y0042000D01*
X0037000Y0037000D01*
X0037000Y0032000D01*
X0037000Y0033976D02*
X0037000Y0033976D01*
X0037000Y0035975D02*
X0037000Y0035975D01*
X0037000Y0037000D02*
X0037000Y0037000D01*
X0037000Y0037973D02*
X0037000Y0037973D01*
X0037000Y0039972D02*
X0037000Y0039972D01*
X0037000Y0041970D02*
X0037000Y0041970D01*
X0037000Y0043969D02*
X0037000Y0043969D01*
X0037000Y0045967D02*
X0037000Y0045967D01*
X0037000Y0047966D02*
X0037000Y0047966D01*
X0037000Y0049964D02*
X0037000Y0049964D01*
X0037000Y0051963D02*
X0037000Y0051963D01*
X0037000Y0052000D02*
X0039071Y0052000D01*
X0041293Y0049778D01*
X0043134Y0051619D01*
X0043381Y0060000D01*
X0026104Y0060000D01*
X0011500Y0038758D01*
X0011500Y0029030D01*
X0012607Y0029489D01*
X0014393Y0029489D01*
X0015573Y0029000D01*
X0026843Y0029000D01*
X0024843Y0031000D01*
X0024515Y0031000D01*
X0021000Y0034515D01*
X0021000Y0039485D01*
X0023000Y0041485D01*
X0021486Y0039972D02*
X0012335Y0039972D01*
X0011500Y0037973D02*
X0021000Y0037973D01*
X0021000Y0035975D02*
X0011500Y0035975D01*
X0011500Y0033976D02*
X0021539Y0033976D01*
X0023537Y0031978D02*
X0011500Y0031978D01*
X0011500Y0029979D02*
X0025864Y0029979D01*
X0027000Y0034500D02*
X0034500Y0027000D01*
X0029500Y0022000D02*
X0047500Y0022500D01*
X0047000Y0037000D01*
X0043485Y0041970D02*
X0039101Y0041970D01*
X0041040Y0043969D02*
X0041546Y0043969D01*
X0041486Y0039972D02*
X0041099Y0039972D01*
X0041047Y0033976D02*
X0041539Y0033976D01*
X0032901Y0039972D02*
X0032514Y0039972D01*
X0031000Y0041970D02*
X0034899Y0041970D01*
X0032960Y0043969D02*
X0032454Y0043969D01*
X0027000Y0047000D02*
X0027000Y0037000D01*
X0027000Y0034500D01*
X0026500Y0025000D02*
X0029500Y0022000D01*
X0026500Y0025000D02*
X0013500Y0025000D01*
X0025000Y0019000D02*
X0027000Y0017000D01*
X0066500Y0016500D01*
X0067000Y0037000D01*
X0070889Y0032404D02*
X0072000Y0033515D01*
X0074515Y0031000D01*
X0079485Y0031000D01*
X0083000Y0034515D01*
X0083000Y0037343D01*
X0086766Y0041109D01*
X0087891Y0042234D01*
X0088500Y0043704D01*
X0088500Y0047202D01*
X0089075Y0048590D01*
X0089075Y0050410D01*
X0088378Y0052091D01*
X0087091Y0053378D01*
X0085410Y0054075D01*
X0083590Y0054075D01*
X0081909Y0053378D01*
X0081000Y0052470D01*
X0081000Y0054702D01*
X0081575Y0056090D01*
X0081575Y0057910D01*
X0080878Y0059591D01*
X0079591Y0060878D01*
X0077910Y0061575D01*
X0076090Y0061575D01*
X0074409Y0060878D01*
X0073122Y0059591D01*
X0072425Y0057910D01*
X0072425Y0056090D01*
X0073000Y0054702D01*
X0073000Y0051485D01*
X0072000Y0050485D01*
X0072000Y0068343D01*
X0081878Y0078221D01*
X0082194Y0077457D01*
X0083457Y0076194D01*
X0085107Y0075511D01*
X0086893Y0075511D01*
X0088073Y0076000D01*
X0093511Y0076000D01*
X0093511Y0075107D01*
X0094194Y0073457D01*
X0095457Y0072194D01*
X0097107Y0071511D01*
X0098893Y0071511D01*
X0100073Y0072000D01*
X0105470Y0072000D01*
X0105011Y0070893D01*
X0105011Y0069107D01*
X0105694Y0067457D01*
X0106957Y0066194D01*
X0108607Y0065511D01*
X0109896Y0065511D01*
X0116050Y0062977D01*
X0122238Y0058557D01*
X0127581Y0052000D01*
X0127500Y0052000D01*
X0127500Y0047000D01*
X0127500Y0048843D01*
X0121922Y0054422D01*
X0119985Y0053000D02*
X0115015Y0053000D01*
X0111500Y0049485D01*
X0111500Y0044515D01*
X0113500Y0042515D01*
X0113500Y0041485D01*
X0111500Y0039485D01*
X0111500Y0036730D01*
X0100412Y0023794D01*
X0099409Y0023378D01*
X0098122Y0022091D01*
X0097425Y0020410D01*
X0097425Y0018590D01*
X0098122Y0016909D01*
X0099409Y0015622D01*
X0101090Y0014925D01*
X0102910Y0014925D01*
X0104591Y0015622D01*
X0105878Y0016909D01*
X0106575Y0018590D01*
X0106575Y0018691D01*
X0117125Y0031000D01*
X0119985Y0031000D01*
X0123207Y0034222D01*
X0125429Y0032000D01*
X0127500Y0032000D01*
X0129571Y0032000D01*
X0131793Y0034222D01*
X0133988Y0032027D01*
X0134109Y0031734D01*
X0140047Y0025796D01*
X0140622Y0024409D01*
X0141909Y0023122D01*
X0143590Y0022425D01*
X0145410Y0022425D01*
X0147091Y0023122D01*
X0148378Y0024409D01*
X0149075Y0026090D01*
X0149075Y0027910D01*
X0148378Y0029591D01*
X0147091Y0030878D01*
X0146798Y0031000D01*
X0149985Y0031000D01*
X0152500Y0033515D01*
X0153988Y0032027D01*
X0154109Y0031734D01*
X0158609Y0027234D01*
X0159734Y0026109D01*
X0161204Y0025500D01*
X0165409Y0025500D01*
X0165590Y0025425D01*
X0167410Y0025425D01*
X0169091Y0026122D01*
X0170378Y0027409D01*
X0171075Y0029090D01*
X0171075Y0030910D01*
X0170729Y0031744D01*
X0171985Y0033000D01*
X0172796Y0033000D01*
X0174266Y0033609D01*
X0176266Y0035609D01*
X0177391Y0036734D01*
X0178000Y0038204D01*
X0178000Y0049702D01*
X0178000Y0028823D01*
X0177957Y0028806D01*
X0176694Y0027543D01*
X0176011Y0025893D01*
X0176011Y0024107D01*
X0176694Y0022457D01*
X0177491Y0021661D01*
X0157311Y0014500D01*
X0069994Y0014500D01*
X0070167Y0014901D01*
X0070479Y0015607D01*
X0070480Y0015631D01*
X0070490Y0015654D01*
X0070499Y0016426D01*
X0070889Y0032404D01*
X0070879Y0031978D02*
X0073537Y0031978D01*
X0070830Y0029979D02*
X0105714Y0029979D01*
X0104001Y0027981D02*
X0070781Y0027981D01*
X0070732Y0025982D02*
X0102288Y0025982D01*
X0100575Y0023984D02*
X0070684Y0023984D01*
X0070635Y0021985D02*
X0098078Y0021985D01*
X0097425Y0019987D02*
X0070586Y0019987D01*
X0070537Y0017988D02*
X0097675Y0017988D01*
X0099041Y0015990D02*
X0070494Y0015990D01*
X0061500Y0029500D02*
X0057000Y0029500D01*
X0057000Y0037000D01*
X0062000Y0030000D02*
X0061500Y0029500D01*
X0077000Y0037000D02*
X0084500Y0044500D01*
X0084500Y0049500D01*
X0088816Y0047966D02*
X0111500Y0047966D01*
X0111500Y0045967D02*
X0088500Y0045967D01*
X0088500Y0043969D02*
X0112046Y0043969D01*
X0113500Y0041970D02*
X0087627Y0041970D01*
X0085629Y0039972D02*
X0111986Y0039972D01*
X0111500Y0037973D02*
X0083630Y0037973D01*
X0083000Y0035975D02*
X0110853Y0035975D01*
X0109140Y0033976D02*
X0082461Y0033976D01*
X0080463Y0031978D02*
X0107427Y0031978D01*
X0112824Y0025982D02*
X0139861Y0025982D01*
X0141047Y0023984D02*
X0111111Y0023984D01*
X0109398Y0021985D02*
X0177167Y0021985D01*
X0176062Y0023984D02*
X0147953Y0023984D01*
X0149030Y0025982D02*
X0160040Y0025982D01*
X0157862Y0027981D02*
X0149046Y0027981D01*
X0147991Y0029979D02*
X0155864Y0029979D01*
X0154008Y0031978D02*
X0150963Y0031978D01*
X0157500Y0034000D02*
X0157500Y0037000D01*
X0157500Y0034000D02*
X0162000Y0029500D01*
X0166000Y0029500D01*
X0166500Y0030000D01*
X0171075Y0029979D02*
X0178000Y0029979D01*
X0178000Y0031978D02*
X0170963Y0031978D01*
X0170615Y0027981D02*
X0177132Y0027981D01*
X0176048Y0025982D02*
X0168755Y0025982D01*
X0172774Y0019987D02*
X0107685Y0019987D01*
X0106325Y0017988D02*
X0167141Y0017988D01*
X0161509Y0015990D02*
X0104959Y0015990D01*
X0102000Y0019500D02*
X0117000Y0037000D01*
X0117500Y0037000D01*
X0117500Y0047000D01*
X0121022Y0051963D02*
X0125392Y0051963D01*
X0125429Y0052000D02*
X0123207Y0049778D01*
X0119985Y0053000D01*
X0123021Y0049964D02*
X0123393Y0049964D01*
X0125429Y0052000D02*
X0127500Y0052000D01*
X0127500Y0047000D01*
X0127500Y0037000D01*
X0127500Y0037000D01*
X0127500Y0042000D01*
X0129571Y0042000D01*
X0131793Y0039778D01*
X0134015Y0042000D01*
X0131793Y0044222D01*
X0129571Y0042000D01*
X0127500Y0042000D01*
X0127500Y0047000D01*
X0127500Y0047000D01*
X0127500Y0047000D01*
X0127500Y0042000D01*
X0125429Y0042000D01*
X0123207Y0039778D01*
X0121500Y0041485D01*
X0121500Y0042515D01*
X0123207Y0044222D01*
X0125429Y0042000D01*
X0127500Y0042000D01*
X0127500Y0037000D01*
X0127500Y0032000D01*
X0127500Y0037000D01*
X0127500Y0037000D01*
X0127500Y0037973D02*
X0127500Y0037973D01*
X0127500Y0035975D02*
X0127500Y0035975D01*
X0127500Y0033976D02*
X0127500Y0033976D01*
X0131547Y0033976D02*
X0132039Y0033976D01*
X0134008Y0031978D02*
X0120963Y0031978D01*
X0122961Y0033976D02*
X0123453Y0033976D01*
X0123401Y0039972D02*
X0123014Y0039972D01*
X0121500Y0041970D02*
X0125399Y0041970D01*
X0127500Y0041970D02*
X0127500Y0041970D01*
X0127500Y0043969D02*
X0127500Y0043969D01*
X0127500Y0045967D02*
X0127500Y0045967D01*
X0127500Y0047966D02*
X0127500Y0047966D01*
X0127500Y0049964D02*
X0127500Y0049964D01*
X0127500Y0051963D02*
X0127500Y0051963D01*
X0125983Y0053961D02*
X0085684Y0053961D01*
X0083316Y0053961D02*
X0081000Y0053961D01*
X0081521Y0055960D02*
X0124355Y0055960D01*
X0122726Y0057958D02*
X0081555Y0057958D01*
X0080513Y0059957D02*
X0120279Y0059957D01*
X0117481Y0061955D02*
X0072000Y0061955D01*
X0072000Y0059957D02*
X0073487Y0059957D01*
X0072445Y0057958D02*
X0072000Y0057958D01*
X0072000Y0055960D02*
X0072479Y0055960D01*
X0072000Y0053961D02*
X0073000Y0053961D01*
X0073000Y0051963D02*
X0072000Y0051963D01*
X0072000Y0050485D02*
X0072000Y0050485D01*
X0068000Y0048000D02*
X0067000Y0047000D01*
X0068000Y0048000D02*
X0068000Y0070000D01*
X0098000Y0100000D01*
X0096000Y0106000D02*
X0106000Y0106000D01*
X0112000Y0112000D01*
X0122000Y0112000D02*
X0122000Y0094000D01*
X0130000Y0086000D01*
X0138000Y0086000D01*
X0189000Y0072500D01*
X0189000Y0021500D01*
X0158000Y0010500D01*
X0162903Y0007996D02*
X0196921Y0007996D01*
X0196921Y0009994D02*
X0168535Y0009994D01*
X0174168Y0011993D02*
X0196921Y0011993D01*
X0196921Y0013991D02*
X0179800Y0013991D01*
X0185432Y0015990D02*
X0196921Y0015990D01*
X0196921Y0017988D02*
X0191064Y0017988D01*
X0192710Y0019987D02*
X0196921Y0019987D01*
X0196921Y0021985D02*
X0193030Y0021985D01*
X0193000Y0023984D02*
X0196921Y0023984D01*
X0196921Y0025982D02*
X0193000Y0025982D01*
X0193000Y0027981D02*
X0196921Y0027981D01*
X0196921Y0029979D02*
X0193000Y0029979D01*
X0193000Y0031978D02*
X0196921Y0031978D01*
X0196921Y0033976D02*
X0193000Y0033976D01*
X0193000Y0035975D02*
X0196921Y0035975D01*
X0196921Y0037973D02*
X0193000Y0037973D01*
X0193000Y0039972D02*
X0196921Y0039972D01*
X0196921Y0041970D02*
X0193000Y0041970D01*
X0193000Y0043969D02*
X0196921Y0043969D01*
X0196921Y0045967D02*
X0193000Y0045967D01*
X0193000Y0047966D02*
X0196921Y0047966D01*
X0196921Y0049964D02*
X0193000Y0049964D01*
X0193000Y0051963D02*
X0196921Y0051963D01*
X0196921Y0053961D02*
X0193000Y0053961D01*
X0193000Y0055960D02*
X0196921Y0055960D01*
X0196921Y0057958D02*
X0193000Y0057958D01*
X0193000Y0059957D02*
X0196921Y0059957D01*
X0196921Y0061955D02*
X0193000Y0061955D01*
X0193000Y0063954D02*
X0196921Y0063954D01*
X0196921Y0065952D02*
X0193000Y0065952D01*
X0193000Y0067951D02*
X0196921Y0067951D01*
X0196921Y0069949D02*
X0193000Y0069949D01*
X0193000Y0071948D02*
X0196921Y0071948D01*
X0196921Y0073946D02*
X0192786Y0073946D01*
X0191136Y0075945D02*
X0196921Y0075945D01*
X0196921Y0077943D02*
X0184067Y0077943D01*
X0176518Y0079942D02*
X0196921Y0079942D01*
X0196921Y0081940D02*
X0168968Y0081940D01*
X0161418Y0083939D02*
X0196921Y0083939D01*
X0196921Y0085937D02*
X0153868Y0085937D01*
X0146318Y0087936D02*
X0179857Y0087936D01*
X0177904Y0089934D02*
X0138954Y0089934D01*
X0137590Y0091933D02*
X0176819Y0091933D01*
X0176500Y0093932D02*
X0139588Y0093932D01*
X0141587Y0095930D02*
X0176500Y0095930D01*
X0176500Y0097929D02*
X0143585Y0097929D01*
X0145584Y0099927D02*
X0176500Y0099927D01*
X0174683Y0101926D02*
X0147582Y0101926D01*
X0149581Y0103924D02*
X0172518Y0103924D01*
X0170353Y0105923D02*
X0151469Y0105923D01*
X0152000Y0107921D02*
X0168188Y0107921D01*
X0166023Y0109920D02*
X0152000Y0109920D01*
X0152000Y0111918D02*
X0163858Y0111918D01*
X0161693Y0113917D02*
X0152000Y0113917D01*
X0152000Y0115915D02*
X0159528Y0115915D01*
X0157363Y0117914D02*
X0152000Y0117914D01*
X0152000Y0119912D02*
X0155198Y0119912D01*
X0153033Y0121911D02*
X0152000Y0121911D01*
X0148000Y0126000D02*
X0136000Y0135500D01*
X0135500Y0135500D01*
X0134500Y0137000D01*
X0113000Y0138000D01*
X0112000Y0122000D01*
X0102000Y0122000D02*
X0102000Y0133425D01*
X0102000Y0129000D01*
X0096000Y0133000D02*
X0102000Y0143000D01*
X0117016Y0142558D01*
X0136000Y0142000D01*
X0137000Y0142000D01*
X0148000Y0132000D01*
X0180500Y0102000D01*
X0180500Y0093500D01*
X0182000Y0092000D01*
X0186575Y0091933D02*
X0196921Y0091933D01*
X0196921Y0089934D02*
X0186096Y0089934D01*
X0184143Y0087936D02*
X0196921Y0087936D01*
X0196921Y0093932D02*
X0186152Y0093932D01*
X0184500Y0095930D02*
X0196921Y0095930D01*
X0196921Y0097929D02*
X0184500Y0097929D01*
X0184500Y0099927D02*
X0196921Y0099927D01*
X0196921Y0101926D02*
X0184506Y0101926D01*
X0184033Y0103924D02*
X0196921Y0103924D01*
X0196921Y0105923D02*
X0182148Y0105923D01*
X0179983Y0107921D02*
X0196921Y0107921D01*
X0196921Y0109920D02*
X0177818Y0109920D01*
X0175653Y0111918D02*
X0196921Y0111918D01*
X0196921Y0113917D02*
X0173488Y0113917D01*
X0171323Y0115915D02*
X0196921Y0115915D01*
X0196921Y0117914D02*
X0169157Y0117914D01*
X0166992Y0119912D02*
X0196921Y0119912D01*
X0196921Y0121911D02*
X0164827Y0121911D01*
X0162662Y0123909D02*
X0196921Y0123909D01*
X0196921Y0125908D02*
X0160497Y0125908D01*
X0158332Y0127906D02*
X0196921Y0127906D01*
X0196921Y0129905D02*
X0156167Y0129905D01*
X0154002Y0131903D02*
X0196921Y0131903D01*
X0196921Y0133902D02*
X0151837Y0133902D01*
X0149656Y0135900D02*
X0196921Y0135900D01*
X0196921Y0137899D02*
X0147458Y0137899D01*
X0145259Y0139897D02*
X0196921Y0139897D01*
X0196921Y0141896D02*
X0143061Y0141896D01*
X0140863Y0143894D02*
X0196921Y0143894D01*
X0196921Y0145893D02*
X0138054Y0145893D01*
X0133000Y0130500D02*
X0132000Y0129500D01*
X0132000Y0122000D01*
X0122000Y0122000D02*
X0122000Y0132000D01*
X0132000Y0112000D02*
X0132000Y0112000D01*
X0132000Y0107000D01*
X0134071Y0107000D01*
X0136293Y0109222D01*
X0139515Y0106000D01*
X0140343Y0106000D01*
X0130638Y0096295D01*
X0129457Y0095806D01*
X0128194Y0094543D01*
X0127878Y0093779D01*
X0126000Y0095657D01*
X0126000Y0107515D01*
X0127707Y0109222D01*
X0129929Y0107000D01*
X0132000Y0107000D01*
X0132000Y0112000D01*
X0132000Y0111918D02*
X0132000Y0111918D01*
X0132000Y0109920D02*
X0132000Y0109920D01*
X0132000Y0107921D02*
X0132000Y0107921D01*
X0129008Y0107921D02*
X0126406Y0107921D01*
X0126000Y0105923D02*
X0140266Y0105923D01*
X0138267Y0103924D02*
X0126000Y0103924D01*
X0126000Y0101926D02*
X0136269Y0101926D01*
X0134270Y0099927D02*
X0126000Y0099927D01*
X0126000Y0097929D02*
X0132272Y0097929D01*
X0129758Y0095930D02*
X0126000Y0095930D01*
X0127725Y0093932D02*
X0127941Y0093932D01*
X0132000Y0092000D02*
X0148000Y0108000D01*
X0148000Y0126000D01*
X0137594Y0107921D02*
X0134992Y0107921D01*
X0132000Y0082000D02*
X0166000Y0048000D01*
X0167500Y0047000D01*
X0174000Y0054000D02*
X0174000Y0039000D01*
X0172000Y0037000D01*
X0167500Y0037000D01*
X0174633Y0033976D02*
X0178000Y0033976D01*
X0178000Y0035975D02*
X0176632Y0035975D01*
X0177904Y0037973D02*
X0178000Y0037973D01*
X0178000Y0039972D02*
X0178000Y0039972D01*
X0178000Y0041970D02*
X0178000Y0041970D01*
X0178000Y0043969D02*
X0178000Y0043969D01*
X0178000Y0045967D02*
X0178000Y0045967D01*
X0178000Y0047966D02*
X0178000Y0047966D01*
X0178000Y0049702D02*
X0178000Y0049702D01*
X0182000Y0052000D02*
X0182000Y0026500D01*
X0180500Y0025000D01*
X0157500Y0047000D02*
X0156000Y0048000D01*
X0128000Y0076000D01*
X0098000Y0076000D01*
X0099948Y0071948D02*
X0105448Y0071948D01*
X0105011Y0069949D02*
X0073606Y0069949D01*
X0072000Y0067951D02*
X0105490Y0067951D01*
X0107542Y0065952D02*
X0072000Y0065952D01*
X0072000Y0063954D02*
X0113678Y0063954D01*
X0118000Y0066500D02*
X0125000Y0061500D01*
X0136000Y0048000D01*
X0137500Y0047000D01*
X0133985Y0041970D02*
X0129601Y0041970D01*
X0131540Y0043969D02*
X0132046Y0043969D01*
X0131986Y0039972D02*
X0131599Y0039972D01*
X0127500Y0039972D02*
X0127500Y0039972D01*
X0123460Y0043969D02*
X0122954Y0043969D01*
X0113978Y0051963D02*
X0088432Y0051963D01*
X0089075Y0049964D02*
X0111979Y0049964D01*
X0118000Y0066500D02*
X0109500Y0070000D01*
X0096052Y0071948D02*
X0075605Y0071948D01*
X0077603Y0073946D02*
X0093992Y0073946D01*
X0093511Y0075945D02*
X0087940Y0075945D01*
X0084060Y0075945D02*
X0079602Y0075945D01*
X0081600Y0077943D02*
X0081993Y0077943D01*
X0086000Y0080000D02*
X0094000Y0080000D01*
X0096000Y0082000D01*
X0132000Y0082000D01*
X0142000Y0054500D02*
X0147500Y0049000D01*
X0147500Y0047000D01*
X0137500Y0037000D02*
X0137500Y0034000D01*
X0144500Y0027000D01*
X0137862Y0027981D02*
X0114537Y0027981D01*
X0116250Y0029979D02*
X0135864Y0029979D01*
X0077000Y0047000D02*
X0077000Y0057000D01*
X0058000Y0048000D02*
X0057000Y0047000D01*
X0058000Y0048000D02*
X0058000Y0068000D01*
X0096000Y0106000D01*
X0092000Y0110000D02*
X0092000Y0112000D01*
X0092000Y0110000D02*
X0062000Y0080000D01*
X0057511Y0079942D02*
X0007000Y0079942D01*
X0007000Y0077943D02*
X0057993Y0077943D01*
X0060060Y0075945D02*
X0007000Y0075945D01*
X0007000Y0073946D02*
X0058290Y0073946D01*
X0056291Y0071948D02*
X0007000Y0071948D01*
X0007000Y0081940D02*
X0057945Y0081940D01*
X0059779Y0083939D02*
X0007000Y0083939D01*
X0007000Y0085937D02*
X0062281Y0085937D01*
X0064279Y0087936D02*
X0007000Y0087936D01*
X0007000Y0089934D02*
X0066278Y0089934D01*
X0068276Y0091933D02*
X0055912Y0091933D01*
X0058002Y0093932D02*
X0070275Y0093932D01*
X0072273Y0095930D02*
X0058489Y0095930D01*
X0058060Y0097929D02*
X0074272Y0097929D01*
X0076270Y0099927D02*
X0058011Y0099927D01*
X0057532Y0101926D02*
X0078269Y0101926D01*
X0080267Y0103924D02*
X0054979Y0103924D01*
X0054000Y0100000D02*
X0031000Y0108000D01*
X0031000Y0126000D01*
X0074000Y0154000D01*
X0090000Y0154000D01*
X0094000Y0150000D01*
X0089000Y0134000D01*
X0090000Y0130000D01*
X0090000Y0124000D01*
X0092000Y0122000D01*
X0082000Y0122000D02*
X0082000Y0132000D01*
X0095034Y0139897D02*
X0095474Y0139897D01*
X0095658Y0141896D02*
X0096673Y0141896D01*
X0096283Y0143894D02*
X0097872Y0143894D01*
X0096907Y0145893D02*
X0099185Y0145893D01*
X0097532Y0147891D02*
X0196921Y0147891D01*
X0196921Y0149890D02*
X0098026Y0149890D01*
X0097547Y0151888D02*
X0196921Y0151888D01*
X0196921Y0153887D02*
X0095770Y0153887D01*
X0093771Y0155885D02*
X0196921Y0155885D01*
X0196921Y0157884D02*
X0091076Y0157884D01*
X0088000Y0148000D02*
X0062000Y0122000D01*
X0058000Y0128000D02*
X0078000Y0148000D01*
X0072234Y0147891D02*
X0071949Y0147891D01*
X0070236Y0145893D02*
X0068880Y0145893D01*
X0068237Y0143894D02*
X0065811Y0143894D01*
X0066239Y0141896D02*
X0062742Y0141896D01*
X0064240Y0139897D02*
X0059673Y0139897D01*
X0062242Y0137899D02*
X0056603Y0137899D01*
X0053534Y0135900D02*
X0060243Y0135900D01*
X0058245Y0133902D02*
X0050465Y0133902D01*
X0047396Y0131903D02*
X0055693Y0131903D01*
X0053930Y0129905D02*
X0044327Y0129905D01*
X0041258Y0127906D02*
X0053511Y0127906D01*
X0052000Y0127000D02*
X0049929Y0127000D01*
X0047000Y0124071D01*
X0047000Y0122000D01*
X0052000Y0122000D01*
X0052000Y0122000D01*
X0052000Y0122000D01*
X0052000Y0127000D01*
X0052000Y0125908D02*
X0052000Y0125908D01*
X0052000Y0123909D02*
X0052000Y0123909D01*
X0052000Y0122000D02*
X0047000Y0122000D01*
X0047000Y0119929D01*
X0049222Y0117707D01*
X0046000Y0114485D01*
X0047430Y0115915D02*
X0035000Y0115915D01*
X0035000Y0117914D02*
X0049015Y0117914D01*
X0047017Y0119912D02*
X0035000Y0119912D01*
X0035000Y0121911D02*
X0047000Y0121911D01*
X0047000Y0123909D02*
X0035119Y0123909D01*
X0038189Y0125908D02*
X0048837Y0125908D01*
X0038874Y0135900D02*
X0007000Y0135900D01*
X0007000Y0137899D02*
X0041943Y0137899D01*
X0045012Y0139897D02*
X0007000Y0139897D01*
X0007000Y0141896D02*
X0048081Y0141896D01*
X0051150Y0143894D02*
X0007000Y0143894D01*
X0007000Y0145893D02*
X0054219Y0145893D01*
X0057288Y0147891D02*
X0007000Y0147891D01*
X0007000Y0149890D02*
X0060358Y0149890D01*
X0063427Y0151888D02*
X0007000Y0151888D01*
X0007000Y0153887D02*
X0066496Y0153887D01*
X0069565Y0155885D02*
X0007000Y0155885D01*
X0007000Y0157884D02*
X0072924Y0157884D01*
X0035804Y0133902D02*
X0007000Y0133902D01*
X0007000Y0131903D02*
X0032735Y0131903D01*
X0029666Y0129905D02*
X0007000Y0129905D01*
X0007000Y0127906D02*
X0027457Y0127906D01*
X0026948Y0125908D02*
X0007000Y0125908D01*
X0007000Y0123909D02*
X0027000Y0123909D01*
X0027000Y0121911D02*
X0007000Y0121911D01*
X0007000Y0119912D02*
X0027000Y0119912D01*
X0027000Y0117914D02*
X0007000Y0117914D01*
X0007000Y0115915D02*
X0027000Y0115915D01*
X0027000Y0113917D02*
X0007000Y0113917D01*
X0007000Y0111918D02*
X0027000Y0111918D01*
X0027000Y0109920D02*
X0007000Y0109920D01*
X0007000Y0107921D02*
X0026998Y0107921D01*
X0027531Y0105923D02*
X0007000Y0105923D01*
X0007000Y0103924D02*
X0030542Y0103924D01*
X0036288Y0101926D02*
X0007000Y0101926D01*
X0007000Y0099927D02*
X0042034Y0099927D01*
X0047780Y0097929D02*
X0007000Y0097929D01*
X0007000Y0095930D02*
X0049511Y0095930D01*
X0049998Y0093932D02*
X0007000Y0093932D01*
X0007000Y0091933D02*
X0052088Y0091933D01*
X0054000Y0096000D02*
X0054000Y0100000D01*
X0049148Y0105923D02*
X0082266Y0105923D01*
X0077594Y0107921D02*
X0076406Y0107921D01*
X0067594Y0107921D02*
X0066406Y0107921D01*
X0057594Y0107921D02*
X0056406Y0107921D01*
X0047594Y0107921D02*
X0043403Y0107921D01*
X0046000Y0109920D02*
X0037657Y0109920D01*
X0007000Y0159882D02*
X0196921Y0159882D01*
X0196921Y0161881D02*
X0007000Y0161881D01*
X0007000Y0163879D02*
X0196921Y0163879D01*
X0043379Y0059957D02*
X0026074Y0059957D01*
X0024700Y0057958D02*
X0043321Y0057958D01*
X0043262Y0055960D02*
X0023326Y0055960D01*
X0021952Y0053961D02*
X0043203Y0053961D01*
X0043144Y0051963D02*
X0039108Y0051963D01*
X0041107Y0049964D02*
X0041479Y0049964D01*
X0034892Y0051963D02*
X0030522Y0051963D01*
X0032521Y0049964D02*
X0032893Y0049964D01*
X0023478Y0051963D02*
X0020579Y0051963D01*
X0021479Y0049964D02*
X0019205Y0049964D01*
X0017831Y0047966D02*
X0021000Y0047966D01*
X0021000Y0045967D02*
X0016457Y0045967D01*
X0015083Y0043969D02*
X0021546Y0043969D01*
D12*
X0037000Y0057000D03*
X0062000Y0030000D03*
X0042000Y0029500D03*
X0034500Y0027000D03*
X0077000Y0057000D03*
X0084500Y0049500D03*
X0102000Y0019500D03*
X0121922Y0054422D03*
X0142000Y0054500D03*
X0166500Y0030000D03*
X0144500Y0027000D03*
X0174000Y0054000D03*
X0182000Y0052000D03*
X0182000Y0092000D03*
X0133000Y0130500D03*
X0122000Y0132000D03*
X0102000Y0133425D03*
X0082000Y0132000D03*
X0042000Y0112000D03*
D13*
X0054000Y0096000D03*
X0062000Y0080000D03*
X0086000Y0080000D03*
X0098000Y0076000D03*
X0109500Y0070000D03*
X0132000Y0092000D03*
X0098000Y0100000D03*
X0096000Y0133000D03*
X0088000Y0148000D03*
X0078000Y0148000D03*
X0058000Y0128000D03*
X0013500Y0025000D03*
X0025000Y0019000D03*
X0180500Y0025000D03*
M02*
