G75*
%MOIN*%
%OFA0B0*%
%FSLAX25Y25*%
%IPPOS*%
%LPD*%
%AMOC8*
5,1,8,0,0,1.08239X$1,22.5*
%
%ADD10OC8,0.06800*%
%ADD11C,0.03950*%
%ADD12C,0.03778*%
D10*
X0027000Y0037000D03*
X0037000Y0037000D03*
X0047000Y0037000D03*
X0057000Y0037000D03*
X0067000Y0037000D03*
X0077000Y0037000D03*
X0077000Y0047000D03*
X0067000Y0047000D03*
X0057000Y0047000D03*
X0047000Y0047000D03*
X0037000Y0047000D03*
X0027000Y0047000D03*
X0052000Y0112000D03*
X0062000Y0112000D03*
X0072000Y0112000D03*
X0082000Y0112000D03*
X0092000Y0112000D03*
X0102000Y0112000D03*
X0112000Y0112000D03*
X0122000Y0112000D03*
X0132000Y0112000D03*
X0142000Y0112000D03*
X0142000Y0122000D03*
X0132000Y0122000D03*
X0122000Y0122000D03*
X0112000Y0122000D03*
X0102000Y0122000D03*
X0092000Y0122000D03*
X0082000Y0122000D03*
X0072000Y0122000D03*
X0062000Y0122000D03*
X0052000Y0122000D03*
X0117500Y0047000D03*
X0127500Y0047000D03*
X0137500Y0047000D03*
X0147500Y0047000D03*
X0157500Y0047000D03*
X0167500Y0047000D03*
X0167500Y0037000D03*
X0157500Y0037000D03*
X0147500Y0037000D03*
X0137500Y0037000D03*
X0127500Y0037000D03*
X0117500Y0037000D03*
D11*
X0121922Y0054422D03*
X0142000Y0054500D03*
X0166500Y0030000D03*
X0144500Y0027000D03*
X0174000Y0054000D03*
X0182000Y0052000D03*
X0182000Y0092000D03*
X0133000Y0130500D03*
X0122000Y0132000D03*
X0102000Y0133425D03*
X0082000Y0132000D03*
X0042000Y0112000D03*
X0037000Y0057000D03*
X0062000Y0030000D03*
X0042000Y0029500D03*
X0034500Y0027000D03*
X0077000Y0057000D03*
X0084500Y0049500D03*
X0102000Y0019500D03*
D12*
X0025000Y0019000D03*
X0013500Y0025000D03*
X0062000Y0080000D03*
X0054000Y0096000D03*
X0086000Y0080000D03*
X0098000Y0076000D03*
X0109500Y0070000D03*
X0132000Y0092000D03*
X0098000Y0100000D03*
X0096000Y0133000D03*
X0088000Y0148000D03*
X0078000Y0148000D03*
X0058000Y0128000D03*
X0180500Y0025000D03*
M02*
