G75*
%MOIN*%
%OFA0B0*%
%FSLAX25Y25*%
%IPPOS*%
%LPD*%
%AMOC8*
5,1,8,0,0,1.08239X$1,22.5*
%
%ADD10OC8,0.06000*%
%ADD11C,0.02000*%
%ADD12C,0.03150*%
%ADD13C,0.02978*%
D10*
X0027000Y0037000D03*
X0037000Y0037000D03*
X0047000Y0037000D03*
X0057000Y0037000D03*
X0067000Y0037000D03*
X0077000Y0037000D03*
X0077000Y0047000D03*
X0067000Y0047000D03*
X0057000Y0047000D03*
X0047000Y0047000D03*
X0037000Y0047000D03*
X0027000Y0047000D03*
X0052000Y0112000D03*
X0062000Y0112000D03*
X0072000Y0112000D03*
X0082000Y0112000D03*
X0092000Y0112000D03*
X0102000Y0112000D03*
X0112000Y0112000D03*
X0122000Y0112000D03*
X0132000Y0112000D03*
X0142000Y0112000D03*
X0142000Y0122000D03*
X0132000Y0122000D03*
X0122000Y0122000D03*
X0112000Y0122000D03*
X0102000Y0122000D03*
X0092000Y0122000D03*
X0082000Y0122000D03*
X0072000Y0122000D03*
X0062000Y0122000D03*
X0052000Y0122000D03*
X0117500Y0047000D03*
X0127500Y0047000D03*
X0137500Y0047000D03*
X0147500Y0047000D03*
X0157500Y0047000D03*
X0167500Y0047000D03*
X0167500Y0037000D03*
X0157500Y0037000D03*
X0147500Y0037000D03*
X0137500Y0037000D03*
X0127500Y0037000D03*
X0117500Y0037000D03*
D11*
X0025000Y0019000D02*
X0019500Y0019500D01*
X0017500Y0100000D01*
X0054000Y0139000D01*
X0103000Y0139000D01*
X0102000Y0135000D01*
X0102000Y0133425D01*
X0096000Y0133000D02*
X0088000Y0133000D01*
X0084000Y0132000D01*
X0082000Y0132000D01*
X0072000Y0122000D02*
X0066000Y0128000D01*
X0058000Y0128000D01*
X0052000Y0143000D02*
X0106000Y0143000D01*
X0107000Y0142000D01*
X0117000Y0142000D01*
X0122000Y0132000D01*
X0133000Y0130500D02*
X0146000Y0130500D01*
X0148000Y0126000D01*
X0148000Y0063000D01*
X0142000Y0057000D01*
X0142000Y0054500D01*
X0138000Y0058000D02*
X0125500Y0058000D01*
X0121922Y0054422D01*
X0120422Y0054422D01*
X0120000Y0054000D01*
X0110000Y0054000D01*
X0082000Y0023500D01*
X0045500Y0023500D01*
X0042000Y0029500D01*
X0037000Y0027000D02*
X0042000Y0019500D01*
X0102000Y0019500D01*
X0080000Y0030000D02*
X0132000Y0084500D01*
X0132000Y0092000D01*
X0138000Y0094000D02*
X0138000Y0058000D01*
X0109500Y0070000D02*
X0109500Y0082000D01*
X0091500Y0100000D01*
X0082000Y0100000D01*
X0082000Y0112000D01*
X0072000Y0112000D02*
X0072000Y0102000D01*
X0098000Y0076000D01*
X0086000Y0080000D02*
X0062000Y0104000D01*
X0062000Y0112000D01*
X0054000Y0096000D02*
X0084000Y0066000D01*
X0084000Y0050000D01*
X0084500Y0049500D01*
X0077000Y0057000D02*
X0076000Y0058000D01*
X0076000Y0066000D01*
X0062000Y0080000D01*
X0038000Y0058000D02*
X0037000Y0057000D01*
X0038000Y0058000D02*
X0038000Y0108000D01*
X0042000Y0112000D01*
X0013500Y0102000D02*
X0052000Y0143000D01*
X0078000Y0148000D02*
X0084000Y0154000D01*
X0138000Y0154000D01*
X0190500Y0111500D01*
X0190500Y0038000D01*
X0170000Y0030000D01*
X0166500Y0030000D01*
X0166500Y0021000D02*
X0145500Y0021000D01*
X0144500Y0027000D01*
X0166500Y0021000D02*
X0180500Y0025000D01*
X0182000Y0052000D02*
X0182000Y0092000D01*
X0174000Y0112000D02*
X0174000Y0054000D01*
X0138000Y0094000D02*
X0132000Y0100000D01*
X0132000Y0112000D01*
X0102000Y0112000D02*
X0098000Y0108000D01*
X0098000Y0100000D01*
X0088000Y0148000D02*
X0138000Y0148000D01*
X0174000Y0112000D01*
X0080000Y0030000D02*
X0062000Y0030000D01*
X0037000Y0027000D02*
X0034500Y0027000D01*
X0013500Y0025000D02*
X0013500Y0102000D01*
D12*
X0042000Y0112000D03*
X0082000Y0132000D03*
X0102000Y0133425D03*
X0122000Y0132000D03*
X0133000Y0130500D03*
X0182000Y0092000D03*
X0174000Y0054000D03*
X0182000Y0052000D03*
X0166500Y0030000D03*
X0144500Y0027000D03*
X0142000Y0054500D03*
X0121922Y0054422D03*
X0084500Y0049500D03*
X0077000Y0057000D03*
X0062000Y0030000D03*
X0042000Y0029500D03*
X0034500Y0027000D03*
X0037000Y0057000D03*
X0102000Y0019500D03*
D13*
X0109500Y0070000D03*
X0098000Y0076000D03*
X0086000Y0080000D03*
X0098000Y0100000D03*
X0132000Y0092000D03*
X0096000Y0133000D03*
X0088000Y0148000D03*
X0078000Y0148000D03*
X0058000Y0128000D03*
X0054000Y0096000D03*
X0062000Y0080000D03*
X0013500Y0025000D03*
X0025000Y0019000D03*
X0180500Y0025000D03*
M02*
