%
M48
M72
T01C0.01378
T02C0.04000
%
T01
X25000Y19000
X34500Y27000
X42000Y29500
X62000Y30000
X84500Y49500
X77000Y57000
X98000Y76000
X109500Y70000
X121922Y54422
X142000Y54500
X166500Y30000
X180500Y25000
X182000Y52000
X174000Y54000
X144500Y27000
X102000Y19500
X37000Y57000
X62000Y80000
X54000Y96000
X42000Y112000
X58000Y128000
X82000Y132000
X96000Y133000
X102000Y133425
X122000Y132000
X133000Y130500
X98000Y100000
X86000Y80000
X132000Y92000
X182000Y92000
X88000Y148000
X78000Y148000
X13500Y25000
T02
X27000Y37000
X37000Y37000
X47000Y37000
X57000Y37000
X67000Y37000
X77000Y37000
X77000Y47000
X67000Y47000
X57000Y47000
X47000Y47000
X37000Y47000
X27000Y47000
X52000Y112000
X62000Y112000
X72000Y112000
X82000Y112000
X92000Y112000
X102000Y112000
X112000Y112000
X122000Y112000
X132000Y112000
X142000Y112000
X142000Y122000
X132000Y122000
X122000Y122000
X112000Y122000
X102000Y122000
X92000Y122000
X82000Y122000
X72000Y122000
X62000Y122000
X52000Y122000
X117500Y47000
X127500Y47000
X137500Y47000
X147500Y47000
X157500Y47000
X167500Y47000
X167500Y37000
X157500Y37000
X147500Y37000
X137500Y37000
X127500Y37000
X117500Y37000
M30
